# xmcd
#
# Track frame offsets:
#	150
#	23877
#	43027
#	65541
#	91958
#	113924
#	136484
#	159470
#	183003
#	206197
#	225841
#	248687
#
# Disc length: 3656 seconds
#
# Revision: 1
# Processed by: cddbd v1.5.1PL0 Copyright (c) Steve Scherf et al.
# Submitted via: audiograbber 1.83.01
#
DISCID=980e460c
DTITLE=Various Artist - Verão 2001
DYEAR=2001
DGENRE=Cape Verde
TTITLE0=H.H. and Samira - Mas um Verão
TTITLE1=Djodji and T.C. - N kre voltá
TTITLE2=Djony - Decisão
TTITLE3=Domingos - Nhanha
TTITLE4=Djulai and Gulinho - Undi bu sta
TTITLE5=Lius Dias - Cindereia
TTITLE6=Ze Piteu - Kretcheu
TTITLE7=2PAC and Samira - Sem bu amor
TTITLE8=Dany - Combersu terra
TTITLE9=Alcides and Vanir - Julie
TTITLE10=Gorge Neto - Norstia
TTITLE11=Black Stone - Guizal
EXTD=
EXTT0=
EXTT1=
EXTT2=
EXTT3=
EXTT4=
EXTT5=
EXTT6=
EXTT7=
EXTT8=
EXTT9=
EXTT10=
EXTT11=
PLAYORDER=
